# xmcd CD database file
#
# Track frame offsets:
#	150
#	19552
#	45607
#
# Disc length: 948 seconds
#
# Revision: 1
# Processed by: cddbd v1.5.2PL0 Copyright (c) Steve Scherf et al.
# Submitted via: CDex 1.51
#
DISCID=1803b203
DTITLE=Crystal Kay - Girl's Night
DYEAR=2001
DGENRE=JPop
TTITLE0=Girl's Night
TTITLE1=Girl's Night (Layer 7 Remix)
TTITLE2=Make Me Whole
EXTD=YEAR: 2001
EXTT0=
EXTT1=
EXTT2=
PLAYORDER=
